<svg width="20" height="20" viewBox="0 0 15 15" fill="none" xmlns="http://www.w3.org/2000/svg">
<g clip-path="url(#clip0)">
<path d="M5.70799 5.23562C6.12963 4.60989 3.06328 2.72878 3.52189 1.38541C3.82363 0.50058 5.60608 -0.0205381 6.58223 0.529912C7.57537 1.08916 7.8941 2.66914 7.8941 2.66914C7.8941 2.66914 7.81017 1.70609 8.33172 0.958148C8.75235 0.353924 9.64158 -0.0635573 10.5178 0.102653C11.45 0.278641 12.1094 1.06667 12.2663 1.81364C12.5631 3.22545 11.3921 4.80836 11.3921 4.80836C11.3921 4.80836 11.9995 4.58251 13.1406 4.38013C13.79 4.26476 14.1517 4.20121 14.4524 4.38013C15.0029 4.70864 15.1768 5.75576 14.89 6.51935C14.2036 8.34473 10.9554 9.08682 10.9554 9.08682C10.9554 9.08682 12.3333 9.11126 13.1416 9.94231C14.0318 10.8584 13.5992 12.4374 13.5792 12.5098C13.4863 12.8314 13.2085 13.7925 12.2673 14.2208C11.3591 14.6343 10.2461 14.3645 9.64358 13.7925C9.05709 13.2362 8.76934 12.5088 8.76934 12.5088C8.76934 12.5088 8.42164 13.1013 7.8951 13.7925C7.82116 13.8903 6.75808 15.2513 5.70899 15.0763C4.85773 14.9335 4.41811 13.8473 4.39713 13.7925C3.56185 11.6455 5.70899 8.65858 5.70899 8.65858C5.70899 8.65858 4.55599 9.85725 3.08527 9.94231C1.85733 10.0127 0.238732 9.16503 0.0239184 7.80211C-0.0999742 7.01114 0.261712 6.13609 0.89916 5.66288C1.40372 5.28842 1.97123 5.26495 3.08527 5.23464C4.85573 5.18674 5.51716 5.51818 5.70799 5.23562Z" fill="#E58D05"/>
<path d="M5.56905 6.51838C5.38022 7.56844 5.77387 8.8903 6.88092 9.5131C7.56432 9.89734 8.67636 10.1036 9.50464 9.5131C10.3859 8.88444 10.3809 7.75421 10.3789 7.37388C10.3779 7.06003 10.3239 6.04517 9.50464 5.23465C9.30781 5.04009 8.41259 4.15429 7.31854 4.37916C6.22149 4.60501 5.70094 5.78706 5.56905 6.51838Z" fill="#FC3E00"/>
</g>
<defs>
<clipPath id="clip0">
<rect width="15" height="15" fill="white"/>
</clipPath>
</defs>
</svg>
