<svg width="20" height="20" viewBox="0 0 15 23" fill="none" xmlns="http://www.w3.org/2000/svg">
<path d="M0.057373 22.4586L0.286381 9.03782L7.50012 0.0906372L14.9429 8.92312V22.9427H0.057373V22.4586Z" fill="#EB8982"/>
<path d="M1.99602 22.9427L1.83228 12.9952H6.57388L7.07197 22.9427H1.99602Z" fill="#5073B3"/>
<path d="M8.04053 12.9952V22.9427H12.213V12.7658L8.04053 12.9952Z" fill="#5073B3"/>
<path d="M5.61073 8.06281C5.73554 9.23856 6.87485 9.73754 6.98478 9.78343C7.89966 10.1654 9.28172 10.0105 9.84737 8.98047C10.3374 8.08805 9.98134 6.96277 9.27485 6.3422C8.47447 5.63904 7.22867 5.58857 6.41226 6.22749C6.35959 6.26764 5.49508 6.96965 5.61073 8.06281Z" fill="#FC3E00"/>
</svg>
