<svg width="356" height="84" viewBox="0 0 356 84" fill="none" xmlns="http://www.w3.org/2000/svg">
<line x1="1.09278e-08" y1="0.875" x2="354.346" y2="0.875031" stroke="#333333" stroke-width="0.25"/>
<rect y="44.6282" width="176.641" height="39.3718" fill="#F2F2F2"/>
<rect x="178.769" y="44.6282" width="176.641" height="39.3718" fill="white"/>
<path d="M20.9526 65.7305V69.2051H20.2319V60.6739H23.1382C24.0249 60.6739 24.7241 60.9005 25.2358 61.3536C25.7515 61.8067 26.0093 62.4297 26.0093 63.2227C26.0093 64.0235 25.7612 64.6426 25.2651 65.0801C24.7729 65.5137 24.0581 65.7305 23.1206 65.7305H20.9526ZM20.9526 65.1212H23.1382C23.8374 65.1212 24.3706 64.9551 24.7378 64.6231C25.105 64.2911 25.2886 63.8282 25.2886 63.2344C25.2886 62.6446 25.105 62.1758 24.7378 61.8282C24.3745 61.4766 23.8569 61.2969 23.1851 61.2891H20.9526V65.1212ZM31.394 69.2051C31.3237 69.0059 31.2788 68.711 31.2593 68.3204C31.0132 68.6407 30.6987 68.8887 30.3159 69.0645C29.937 69.2364 29.5347 69.3223 29.1089 69.3223C28.4995 69.3223 28.0054 69.1524 27.6265 68.8126C27.2515 68.4727 27.064 68.043 27.064 67.5235C27.064 66.9063 27.3198 66.418 27.8315 66.0587C28.3472 65.6993 29.064 65.5196 29.9819 65.5196H31.2534V64.7989C31.2534 64.3458 31.1128 63.9903 30.8315 63.7325C30.5542 63.4708 30.1479 63.3399 29.6128 63.3399C29.1245 63.3399 28.7202 63.4649 28.3999 63.7149C28.0796 63.9649 27.9194 64.2657 27.9194 64.6172L27.2163 64.6114C27.2163 64.1075 27.4507 63.6719 27.9194 63.3047C28.3882 62.9337 28.9644 62.7481 29.6479 62.7481C30.355 62.7481 30.9116 62.9258 31.3179 63.2813C31.728 63.6329 31.939 64.1251 31.9507 64.7579V67.7579C31.9507 68.3712 32.0151 68.8301 32.144 69.1348V69.2051H31.394ZM29.1909 68.7012C29.6597 68.7012 30.0776 68.588 30.4448 68.3614C30.8159 68.1348 31.0854 67.8321 31.2534 67.4532V66.0587H29.9995C29.3003 66.0665 28.7534 66.1954 28.3589 66.4454C27.9644 66.6915 27.7671 67.0313 27.7671 67.4649C27.7671 67.8204 27.8979 68.1153 28.1597 68.3497C28.4253 68.584 28.769 68.7012 29.1909 68.7012ZM36.7554 63.463C36.6069 63.4356 36.4487 63.4219 36.2808 63.4219C35.8433 63.4219 35.4722 63.545 35.1675 63.7911C34.8667 64.0333 34.6519 64.3868 34.5229 64.8516V69.2051H33.8257V62.8653H34.5112L34.5229 63.8731C34.894 63.1231 35.4897 62.7481 36.3101 62.7481C36.5054 62.7481 36.6597 62.7735 36.7729 62.8243L36.7554 63.463ZM39.2515 61.2422V62.8653H40.564V63.4395H39.2515V67.6641C39.2515 68.0157 39.314 68.2774 39.439 68.4493C39.5679 68.6212 39.7808 68.7071 40.0776 68.7071C40.1948 68.7071 40.3843 68.6876 40.646 68.6485L40.6753 69.2227C40.4917 69.2891 40.2417 69.3223 39.9253 69.3223C39.4448 69.3223 39.0952 69.1837 38.8765 68.9063C38.6577 68.6251 38.5483 68.213 38.5483 67.67V63.4395H37.3823V62.8653H38.5483V61.2422H39.2515ZM42.8022 69.2051H42.0991V62.8653H42.8022V69.2051ZM41.9761 61.0313C41.9761 60.8985 42.019 60.7872 42.105 60.6973C42.1909 60.6036 42.3081 60.5567 42.4565 60.5567C42.605 60.5567 42.7222 60.6036 42.8081 60.6973C42.8979 60.7872 42.9429 60.8985 42.9429 61.0313C42.9429 61.1641 42.8979 61.2755 42.8081 61.3653C42.7222 61.4551 42.605 61.5001 42.4565 61.5001C42.3081 61.5001 42.1909 61.4551 42.105 61.3653C42.019 61.2755 41.9761 61.1641 41.9761 61.0313ZM47.0562 68.7305C47.5444 68.7305 47.9526 68.5938 48.2808 68.3204C48.6128 68.043 48.7925 67.6856 48.8198 67.2481H49.4937C49.4741 67.6348 49.353 67.9883 49.1304 68.3087C48.9077 68.6251 48.6108 68.8731 48.2397 69.0528C47.8726 69.2325 47.478 69.3223 47.0562 69.3223C46.2241 69.3223 45.564 69.0333 45.0757 68.4551C44.5913 67.877 44.3491 67.0997 44.3491 66.1231V65.9122C44.3491 65.2872 44.4585 64.7344 44.6772 64.254C44.896 63.7735 45.2085 63.4024 45.6147 63.1407C46.0249 62.879 46.5034 62.7481 47.0503 62.7481C47.7456 62.7481 48.3179 62.9551 48.7671 63.3692C49.2202 63.7833 49.4624 64.3282 49.4937 65.004H48.8198C48.7886 64.5079 48.6089 64.1075 48.2808 63.8028C47.9565 63.4981 47.5464 63.3458 47.0503 63.3458C46.4175 63.3458 45.9253 63.5743 45.5737 64.0313C45.2261 64.4883 45.0522 65.129 45.0522 65.9532V66.1583C45.0522 66.9669 45.2261 67.5977 45.5737 68.0508C45.9253 68.504 46.4194 68.7305 47.0562 68.7305ZM54.978 68.4024C54.5562 69.0157 53.8823 69.3223 52.9565 69.3223C52.2808 69.3223 51.7671 69.127 51.4155 68.7364C51.064 68.3419 50.8843 67.7598 50.8765 66.9903V62.8653H51.5737V66.9024C51.5737 68.1094 52.062 68.713 53.0386 68.713C54.0542 68.713 54.6968 68.293 54.9663 67.4532V62.8653H55.6694V69.2051H54.9897L54.978 68.4024ZM58.2827 69.2051H57.5796V60.2051H58.2827V69.2051ZM64.1948 69.2051C64.1245 69.0059 64.0796 68.711 64.0601 68.3204C63.814 68.6407 63.4995 68.8887 63.1167 69.0645C62.7378 69.2364 62.3354 69.3223 61.9097 69.3223C61.3003 69.3223 60.8062 69.1524 60.4272 68.8126C60.0522 68.4727 59.8647 68.043 59.8647 67.5235C59.8647 66.9063 60.1206 66.418 60.6323 66.0587C61.1479 65.6993 61.8647 65.5196 62.7827 65.5196H64.0542V64.7989C64.0542 64.3458 63.9136 63.9903 63.6323 63.7325C63.355 63.4708 62.9487 63.3399 62.4136 63.3399C61.9253 63.3399 61.521 63.4649 61.2007 63.7149C60.8804 63.9649 60.7202 64.2657 60.7202 64.6172L60.0171 64.6114C60.0171 64.1075 60.2515 63.6719 60.7202 63.3047C61.189 62.9337 61.7651 62.7481 62.4487 62.7481C63.1558 62.7481 63.7124 62.9258 64.1187 63.2813C64.5288 63.6329 64.7397 64.1251 64.7515 64.7579V67.7579C64.7515 68.3712 64.8159 68.8301 64.9448 69.1348V69.2051H64.1948ZM61.9917 68.7012C62.4604 68.7012 62.8784 68.588 63.2456 68.3614C63.6167 68.1348 63.8862 67.8321 64.0542 67.4532V66.0587H62.8003C62.1011 66.0665 61.5542 66.1954 61.1597 66.4454C60.7651 66.6915 60.5679 67.0313 60.5679 67.4649C60.5679 67.8204 60.6987 68.1153 60.9604 68.3497C61.2261 68.584 61.5698 68.7012 61.9917 68.7012ZM69.5562 63.463C69.4077 63.4356 69.2495 63.4219 69.0815 63.4219C68.644 63.4219 68.2729 63.545 67.9683 63.7911C67.6675 64.0333 67.4526 64.3868 67.3237 64.8516V69.2051H66.6265V62.8653H67.312L67.3237 63.8731C67.6948 63.1231 68.2905 62.7481 69.1108 62.7481C69.3062 62.7481 69.4604 62.7735 69.5737 62.8243L69.5562 63.463ZM81.4976 67.1075C81.4976 66.6348 81.3315 66.2618 80.9995 65.9883C80.6675 65.711 80.0601 65.4493 79.1772 65.2032C78.2944 64.9532 77.6499 64.6817 77.2437 64.3887C76.6655 63.9747 76.3765 63.4317 76.3765 62.7598C76.3765 62.1075 76.644 61.5782 77.1792 61.1719C77.7183 60.7618 78.4058 60.5567 79.2417 60.5567C79.8081 60.5567 80.314 60.6661 80.7593 60.8848C81.2085 61.1036 81.5562 61.4083 81.8022 61.7989C82.0483 62.1895 82.1714 62.6251 82.1714 63.1055H81.4448C81.4448 62.5235 81.2456 62.0567 80.8472 61.7051C80.4487 61.3497 79.9136 61.1719 79.2417 61.1719C78.5894 61.1719 78.0698 61.3184 77.6831 61.6114C77.2964 61.9005 77.103 62.2794 77.103 62.7481C77.103 63.1817 77.2769 63.5352 77.6245 63.8087C77.9722 64.0821 78.5288 64.3243 79.2944 64.5352C80.0601 64.7422 80.6401 64.959 81.0347 65.1856C81.4292 65.4083 81.7261 65.6758 81.9253 65.9883C82.1245 66.3008 82.2241 66.67 82.2241 67.0958C82.2241 67.7676 81.9546 68.3067 81.4155 68.713C80.8804 69.1192 80.1733 69.3223 79.2944 69.3223C78.6929 69.3223 78.1401 69.2149 77.6362 69.0001C77.1362 68.7852 76.7554 68.4844 76.4937 68.0977C76.2358 67.711 76.1069 67.2676 76.1069 66.7676H76.8276C76.8276 67.3692 77.0522 67.8438 77.5015 68.1915C77.9507 68.5391 78.5483 68.713 79.2944 68.713C79.9585 68.713 80.4917 68.5665 80.894 68.2735C81.2964 67.9805 81.4976 67.5919 81.4976 67.1075ZM87.6968 68.4024C87.2749 69.0157 86.6011 69.3223 85.6753 69.3223C84.9995 69.3223 84.4858 69.127 84.1343 68.7364C83.7827 68.3419 83.603 67.7598 83.5952 66.9903V62.8653H84.2925V66.9024C84.2925 68.1094 84.7808 68.713 85.7573 68.713C86.7729 68.713 87.4155 68.293 87.6851 67.4532V62.8653H88.3882V69.2051H87.7085L87.6968 68.4024ZM95.3198 66.0997C95.3198 67.088 95.1011 67.8731 94.6636 68.4551C94.2261 69.0333 93.6382 69.3223 92.8999 69.3223C92.0171 69.3223 91.3491 68.9942 90.896 68.338L90.8667 69.2051H90.2104V60.2051H90.9077V63.7852C91.353 63.0938 92.0132 62.7481 92.8882 62.7481C93.6382 62.7481 94.23 63.0352 94.6636 63.6094C95.1011 64.1797 95.3198 64.9747 95.3198 65.9942V66.0997ZM94.6167 65.9766C94.6167 65.1407 94.4546 64.4962 94.1304 64.043C93.8062 63.586 93.3491 63.3575 92.7593 63.3575C92.3101 63.3575 91.9292 63.4688 91.6167 63.6915C91.3042 63.9102 91.0679 64.2325 90.9077 64.6583V67.5176C91.2593 68.3145 91.8804 68.713 92.771 68.713C93.3491 68.713 93.8003 68.4844 94.1245 68.0274C94.4526 67.5704 94.6167 66.8868 94.6167 65.9766ZM98.7769 68.2383L100.705 62.8653H101.425L99.0581 69.2051H98.4897L96.1108 62.8653H96.8315L98.7769 68.2383ZM104.953 69.3223C104.414 69.3223 103.925 69.1895 103.488 68.9239C103.054 68.6583 102.716 68.2891 102.474 67.8165C102.232 67.3399 102.111 66.8067 102.111 66.2169V65.9649C102.111 65.3555 102.228 64.8067 102.462 64.3184C102.701 63.8301 103.031 63.4473 103.453 63.17C103.875 62.8887 104.332 62.7481 104.824 62.7481C105.593 62.7481 106.203 63.0118 106.652 63.5391C107.105 64.0626 107.332 64.7794 107.332 65.6895V66.0821H102.808V66.2169C102.808 66.9356 103.013 67.5352 103.423 68.0157C103.837 68.4922 104.357 68.7305 104.982 68.7305C105.357 68.7305 105.687 68.6622 105.972 68.5255C106.261 68.3887 106.523 68.17 106.757 67.8692L107.197 68.2032C106.681 68.9493 105.933 69.3223 104.953 69.3223ZM104.824 63.3458C104.296 63.3458 103.851 63.5391 103.488 63.9258C103.128 64.3126 102.91 64.8321 102.832 65.4844H106.634V65.4083C106.615 64.7989 106.441 64.3028 106.113 63.92C105.785 63.5372 105.355 63.3458 104.824 63.3458ZM109.365 62.8653L109.388 63.9493C109.626 63.5587 109.923 63.2618 110.279 63.0587C110.634 62.8516 111.027 62.7481 111.457 62.7481C112.136 62.7481 112.642 62.9395 112.974 63.3223C113.306 63.7051 113.474 64.2794 113.478 65.045V69.2051H112.781V65.0391C112.777 64.4727 112.656 64.0508 112.417 63.7735C112.183 63.4962 111.806 63.3575 111.287 63.3575C110.853 63.3575 110.468 63.4942 110.132 63.7676C109.8 64.0372 109.554 64.4024 109.394 64.8633V69.2051H108.697V62.8653H109.365ZM117.638 68.7305C118.126 68.7305 118.535 68.5938 118.863 68.3204C119.195 68.043 119.375 67.6856 119.402 67.2481H120.076C120.056 67.6348 119.935 67.9883 119.712 68.3087C119.49 68.6251 119.193 68.8731 118.822 69.0528C118.455 69.2325 118.06 69.3223 117.638 69.3223C116.806 69.3223 116.146 69.0333 115.658 68.4551C115.173 67.877 114.931 67.0997 114.931 66.1231V65.9122C114.931 65.2872 115.041 64.7344 115.259 64.254C115.478 63.7735 115.791 63.4024 116.197 63.1407C116.607 62.879 117.085 62.7481 117.632 62.7481C118.328 62.7481 118.9 62.9551 119.349 63.3692C119.802 63.7833 120.044 64.3282 120.076 65.004H119.402C119.371 64.5079 119.191 64.1075 118.863 63.8028C118.539 63.4981 118.128 63.3458 117.632 63.3458C117 63.3458 116.507 63.5743 116.156 64.0313C115.808 64.4883 115.634 65.129 115.634 65.9532V66.1583C115.634 66.9669 115.808 67.5977 116.156 68.0508C116.507 68.504 117.001 68.7305 117.638 68.7305ZM122.267 69.2051H121.564V62.8653H122.267V69.2051ZM121.441 61.0313C121.441 60.8985 121.484 60.7872 121.57 60.6973C121.656 60.6036 121.773 60.5567 121.921 60.5567C122.07 60.5567 122.187 60.6036 122.273 60.6973C122.363 60.7872 122.408 60.8985 122.408 61.0313C122.408 61.1641 122.363 61.2755 122.273 61.3653C122.187 61.4551 122.07 61.5001 121.921 61.5001C121.773 61.5001 121.656 61.4551 121.57 61.3653C121.484 61.2755 121.441 61.1641 121.441 61.0313ZM123.791 65.9415C123.791 65.3321 123.908 64.7833 124.142 64.295C124.38 63.8067 124.714 63.4278 125.144 63.1583C125.578 62.8848 126.068 62.7481 126.615 62.7481C127.458 62.7481 128.142 63.045 128.666 63.6387C129.189 64.2286 129.451 65.0118 129.451 65.9883V66.1348C129.451 66.7481 129.332 67.3008 129.093 67.793C128.859 68.2813 128.527 68.6583 128.097 68.9239C127.667 69.1895 127.177 69.3223 126.626 69.3223C125.787 69.3223 125.103 69.0274 124.576 68.4376C124.052 67.8438 123.791 67.0587 123.791 66.0821V65.9415ZM124.494 66.1348C124.494 66.8926 124.689 67.5157 125.08 68.004C125.474 68.4883 125.99 68.7305 126.626 68.7305C127.259 68.7305 127.771 68.4883 128.162 68.004C128.556 67.5157 128.753 66.8731 128.753 66.0762V65.9415C128.753 65.4571 128.664 65.0137 128.484 64.6114C128.304 64.209 128.052 63.8985 127.728 63.6797C127.404 63.4571 127.033 63.3458 126.615 63.3458C125.99 63.3458 125.48 63.5919 125.085 64.084C124.691 64.5723 124.494 65.213 124.494 66.0059V66.1348ZM131.572 62.8653L131.595 63.9493C131.833 63.5587 132.13 63.2618 132.486 63.0587C132.841 62.8516 133.234 62.7481 133.664 62.7481C134.343 62.7481 134.849 62.9395 135.181 63.3223C135.513 63.7051 135.681 64.2794 135.685 65.045V69.2051H134.988V65.0391C134.984 64.4727 134.863 64.0508 134.625 63.7735C134.39 63.4962 134.013 63.3575 133.494 63.3575C133.06 63.3575 132.675 63.4942 132.339 63.7676C132.007 64.0372 131.761 64.4024 131.601 64.8633V69.2051H130.904V62.8653H131.572ZM141.503 69.2051C141.433 69.0059 141.388 68.711 141.369 68.3204C141.123 68.6407 140.808 68.8887 140.425 69.0645C140.046 69.2364 139.644 69.3223 139.218 69.3223C138.609 69.3223 138.115 69.1524 137.736 68.8126C137.361 68.4727 137.173 68.043 137.173 67.5235C137.173 66.9063 137.429 66.418 137.941 66.0587C138.457 65.6993 139.173 65.5196 140.091 65.5196H141.363V64.7989C141.363 64.3458 141.222 63.9903 140.941 63.7325C140.664 63.4708 140.257 63.3399 139.722 63.3399C139.234 63.3399 138.83 63.4649 138.509 63.7149C138.189 63.9649 138.029 64.2657 138.029 64.6172L137.326 64.6114C137.326 64.1075 137.56 63.6719 138.029 63.3047C138.498 62.9337 139.074 62.7481 139.757 62.7481C140.464 62.7481 141.021 62.9258 141.427 63.2813C141.837 63.6329 142.048 64.1251 142.06 64.7579V67.7579C142.06 68.3712 142.125 68.8301 142.253 69.1348V69.2051H141.503ZM139.3 68.7012C139.769 68.7012 140.187 68.588 140.554 68.3614C140.925 68.1348 141.195 67.8321 141.363 67.4532V66.0587H140.109C139.41 66.0665 138.863 66.1954 138.468 66.4454C138.074 66.6915 137.876 67.0313 137.876 67.4649C137.876 67.8204 138.007 68.1153 138.269 68.3497C138.535 68.584 138.878 68.7012 139.3 68.7012ZM143.654 65.9766C143.654 64.9922 143.873 64.209 144.31 63.627C144.751 63.0411 145.349 62.7481 146.103 62.7481C146.958 62.7481 147.611 63.086 148.06 63.7618V60.2051H148.757V69.2051H148.101L148.072 68.3614C147.623 69.002 146.962 69.3223 146.091 69.3223C145.361 69.3223 144.771 69.0294 144.322 68.4434C143.876 67.8536 143.654 67.0587 143.654 66.0587V65.9766ZM144.363 66.0997C144.363 66.9083 144.525 67.5469 144.849 68.0157C145.173 68.4805 145.63 68.713 146.22 68.713C147.083 68.713 147.697 68.3321 148.06 67.5704V64.5938C147.697 63.7696 147.087 63.3575 146.232 63.3575C145.642 63.3575 145.183 63.5899 144.855 64.0547C144.527 64.5157 144.363 65.1973 144.363 66.0997ZM150.216 65.9415C150.216 65.3321 150.333 64.7833 150.568 64.295C150.806 63.8067 151.14 63.4278 151.57 63.1583C152.003 62.8848 152.494 62.7481 153.041 62.7481C153.884 62.7481 154.568 63.045 155.091 63.6387C155.615 64.2286 155.876 65.0118 155.876 65.9883V66.1348C155.876 66.7481 155.757 67.3008 155.519 67.793C155.285 68.2813 154.953 68.6583 154.523 68.9239C154.093 69.1895 153.603 69.3223 153.052 69.3223C152.212 69.3223 151.529 69.0274 151.001 68.4376C150.478 67.8438 150.216 67.0587 150.216 66.0821V65.9415ZM150.919 66.1348C150.919 66.8926 151.115 67.5157 151.505 68.004C151.9 68.4883 152.416 68.7305 153.052 68.7305C153.685 68.7305 154.197 68.4883 154.587 68.004C154.982 67.5157 155.179 66.8731 155.179 66.0762V65.9415C155.179 65.4571 155.089 65.0137 154.91 64.6114C154.73 64.209 154.478 63.8985 154.154 63.6797C153.83 63.4571 153.458 63.3458 153.041 63.3458C152.416 63.3458 151.906 63.5919 151.511 64.084C151.117 64.5723 150.919 65.213 150.919 66.0059V66.1348Z" fill="#333333"/>
<path d="M225.26 65.7305V69.2051H224.54V60.6739H227.446C228.333 60.6739 229.032 60.9005 229.543 61.3536C230.059 61.8067 230.317 62.4297 230.317 63.2227C230.317 64.0235 230.069 64.6426 229.573 65.0801C229.081 65.5137 228.366 65.7305 227.428 65.7305H225.26ZM225.26 65.1212H227.446C228.145 65.1212 228.678 64.9551 229.045 64.6231C229.413 64.2911 229.596 63.8282 229.596 63.2344C229.596 62.6446 229.413 62.1758 229.045 61.8282C228.682 61.4766 228.165 61.2969 227.493 61.2891H225.26V65.1212ZM234.7 63.463C234.551 63.4356 234.393 63.4219 234.225 63.4219C233.788 63.4219 233.417 63.545 233.112 63.7911C232.811 64.0333 232.596 64.3868 232.467 64.8516V69.2051H231.77V62.8653H232.456L232.467 63.8731C232.838 63.1231 233.434 62.7481 234.254 62.7481C234.45 62.7481 234.604 62.7735 234.717 62.8243L234.7 63.463ZM238.151 69.3223C237.612 69.3223 237.124 69.1895 236.686 68.9239C236.252 68.6583 235.915 68.2891 235.672 67.8165C235.43 67.3399 235.309 66.8067 235.309 66.2169V65.9649C235.309 65.3555 235.426 64.8067 235.661 64.3184C235.899 63.8301 236.229 63.4473 236.651 63.17C237.073 62.8887 237.53 62.7481 238.022 62.7481C238.792 62.7481 239.401 63.0118 239.85 63.5391C240.303 64.0626 240.53 64.7794 240.53 65.6895V66.0821H236.006V66.2169C236.006 66.9356 236.211 67.5352 236.622 68.0157C237.036 68.4922 237.555 68.7305 238.18 68.7305C238.555 68.7305 238.885 68.6622 239.17 68.5255C239.459 68.3887 239.721 68.17 239.956 67.8692L240.395 68.2032C239.879 68.9493 239.131 69.3223 238.151 69.3223ZM238.022 63.3458C237.495 63.3458 237.049 63.5391 236.686 63.9258C236.327 64.3126 236.108 64.8321 236.03 65.4844H239.833V65.4083C239.813 64.7989 239.639 64.3028 239.311 63.92C238.983 63.5372 238.553 63.3458 238.022 63.3458ZM246.899 64.9688L245.698 66.1524V69.2051H244.977V60.6739H245.698V65.2735L250.069 60.6739H250.977L247.403 64.4708L251.252 69.2051H250.374L246.899 64.9688ZM253.168 69.2051H252.465V62.8653H253.168V69.2051ZM252.342 61.0313C252.342 60.8985 252.385 60.7872 252.471 60.6973C252.557 60.6036 252.674 60.5567 252.823 60.5567C252.971 60.5567 253.088 60.6036 253.174 60.6973C253.264 60.7872 253.309 60.8985 253.309 61.0313C253.309 61.1641 253.264 61.2755 253.174 61.3653C253.088 61.4551 252.971 61.5001 252.823 61.5001C252.674 61.5001 252.557 61.4551 252.471 61.3653C252.385 61.2755 252.342 61.1641 252.342 61.0313ZM255.747 62.8653L255.77 63.9493C256.008 63.5587 256.305 63.2618 256.661 63.0587C257.016 62.8516 257.409 62.7481 257.838 62.7481C258.518 62.7481 259.024 62.9395 259.356 63.3223C259.688 63.7051 259.856 64.2794 259.86 65.045V69.2051H259.163V65.0391C259.159 64.4727 259.038 64.0508 258.799 63.7735C258.565 63.4962 258.188 63.3575 257.668 63.3575C257.235 63.3575 256.85 63.4942 256.514 63.7676C256.182 64.0372 255.936 64.4024 255.776 64.8633V69.2051H255.079V62.8653H255.747ZM261.395 65.9766C261.395 64.9922 261.614 64.209 262.051 63.627C262.493 63.0411 263.09 62.7481 263.844 62.7481C264.7 62.7481 265.352 63.086 265.801 63.7618V60.2051H266.499V69.2051H265.842L265.813 68.3614C265.364 69.002 264.704 69.3223 263.833 69.3223C263.102 69.3223 262.512 69.0294 262.063 68.4434C261.618 67.8536 261.395 67.0587 261.395 66.0587V65.9766ZM262.104 66.0997C262.104 66.9083 262.266 67.5469 262.59 68.0157C262.915 68.4805 263.372 68.713 263.961 68.713C264.825 68.713 265.438 68.3321 265.801 67.5704V64.5938C265.438 63.7696 264.829 63.3575 263.973 63.3575C263.383 63.3575 262.924 63.5899 262.596 64.0547C262.268 64.5157 262.104 65.1973 262.104 66.0997ZM270.799 69.3223C270.26 69.3223 269.772 69.1895 269.334 68.9239C268.901 68.6583 268.563 68.2891 268.321 67.8165C268.079 67.3399 267.958 66.8067 267.958 66.2169V65.9649C267.958 65.3555 268.075 64.8067 268.309 64.3184C268.547 63.8301 268.877 63.4473 269.299 63.17C269.721 62.8887 270.178 62.7481 270.67 62.7481C271.44 62.7481 272.049 63.0118 272.499 63.5391C272.952 64.0626 273.178 64.7794 273.178 65.6895V66.0821H268.655V66.2169C268.655 66.9356 268.86 67.5352 269.27 68.0157C269.684 68.4922 270.204 68.7305 270.829 68.7305C271.204 68.7305 271.534 68.6622 271.819 68.5255C272.108 68.3887 272.37 68.17 272.604 67.8692L273.043 68.2032C272.528 68.9493 271.78 69.3223 270.799 69.3223ZM270.67 63.3458C270.143 63.3458 269.698 63.5391 269.334 63.9258C268.975 64.3126 268.756 64.8321 268.678 65.4844H272.481V65.4083C272.461 64.7989 272.288 64.3028 271.959 63.92C271.631 63.5372 271.202 63.3458 270.67 63.3458ZM277.473 63.463C277.325 63.4356 277.167 63.4219 276.999 63.4219C276.561 63.4219 276.19 63.545 275.885 63.7911C275.584 64.0333 275.37 64.3868 275.241 64.8516V69.2051H274.543V62.8653H275.229L275.241 63.8731C275.612 63.1231 276.208 62.7481 277.028 62.7481C277.223 62.7481 277.377 62.7735 277.491 62.8243L277.473 63.463ZM285.506 69.2051C285.436 69.0059 285.391 68.711 285.372 68.3204C285.125 68.6407 284.811 68.8887 284.428 69.0645C284.049 69.2364 283.647 69.3223 283.221 69.3223C282.612 69.3223 282.118 69.1524 281.739 68.8126C281.364 68.4727 281.176 68.043 281.176 67.5235C281.176 66.9063 281.432 66.418 281.944 66.0587C282.459 65.6993 283.176 65.5196 284.094 65.5196H285.366V64.7989C285.366 64.3458 285.225 63.9903 284.944 63.7325C284.667 63.4708 284.26 63.3399 283.725 63.3399C283.237 63.3399 282.833 63.4649 282.512 63.7149C282.192 63.9649 282.032 64.2657 282.032 64.6172L281.329 64.6114C281.329 64.1075 281.563 63.6719 282.032 63.3047C282.5 62.9337 283.077 62.7481 283.76 62.7481C284.467 62.7481 285.024 62.9258 285.43 63.2813C285.84 63.6329 286.051 64.1251 286.063 64.7579V67.7579C286.063 68.3712 286.127 68.8301 286.256 69.1348V69.2051H285.506ZM283.303 68.7012C283.772 68.7012 284.19 68.588 284.557 68.3614C284.928 68.1348 285.198 67.8321 285.366 67.4532V66.0587H284.112C283.413 66.0665 282.866 66.1954 282.471 66.4454C282.077 66.6915 281.879 67.0313 281.879 67.4649C281.879 67.8204 282.01 68.1153 282.272 68.3497C282.538 68.584 282.881 68.7012 283.303 68.7012ZM291.899 69.2051H291.178V60.6739H291.899V69.2051ZM296.792 68.1505L296.838 68.3321L296.891 68.1505L299.575 60.6739H300.366L297.19 69.2051H296.499L293.323 60.6739H294.108L296.792 68.1505ZM304.239 62.0215C304.239 62.4278 304.1 62.7696 303.823 63.0469C303.545 63.3243 303.211 63.463 302.821 63.463C302.426 63.463 302.088 63.3243 301.807 63.0469C301.526 62.7657 301.385 62.4239 301.385 62.0215C301.385 61.6192 301.528 61.2755 301.813 60.9903C302.098 60.7012 302.434 60.5567 302.821 60.5567C303.208 60.5567 303.54 60.7012 303.817 60.9903C304.098 61.2755 304.239 61.6192 304.239 62.0215ZM301.913 62.0215C301.913 62.2833 301.999 62.5001 302.17 62.6719C302.346 62.8438 302.563 62.9297 302.821 62.9297C303.079 62.9297 303.292 62.8438 303.459 62.6719C303.627 62.5001 303.711 62.2833 303.711 62.0215C303.711 61.752 303.627 61.5294 303.459 61.3536C303.292 61.1778 303.079 61.0899 302.821 61.0899C302.567 61.0899 302.352 61.1778 302.176 61.3536C302 61.5294 301.913 61.752 301.913 62.0215Z" fill="#333333"/>
</svg>
