<svg width="14" height="20" viewBox="0 0 14 20" fill="none" xmlns="http://www.w3.org/2000/svg">
<g clip-path="url(#clip0)">
<path d="M0.0781403 17.9021C0.587058 17.4953 1.21684 17.076 1.50947 17.2715C1.5874 17.3235 1.59853 17.3897 1.66851 17.5868C1.8021 17.9667 2.02952 18.5957 2.46369 19.0056C2.60682 19.1411 2.86764 19.387 3.09984 19.3208C3.26683 19.272 3.37179 19.0765 3.57695 18.6903C3.72803 18.4065 3.79324 18.2126 3.89502 18.2173C3.95386 18.2205 3.9809 18.2867 4.05406 18.375C4.21309 18.5657 4.40235 18.6272 4.53117 18.6903C5.07348 18.9551 5.549 19.7433 6.28057 19.9514C6.65272 20.057 6.95807 19.9703 7.55287 19.7938C8.61046 19.4785 8.82675 19.1616 11.0517 17.7444C11.3443 17.5584 12.0393 17.1186 12.483 16.3256C12.5752 16.1617 12.7581 15.8259 12.642 15.6951C12.5053 15.5422 12.017 15.7739 11.8469 15.8527C10.4426 16.4975 8.76154 16.7276 6.51913 17.035C5.4838 17.1769 4.95739 17.1674 4.45165 16.8774C4.33078 16.808 3.43222 16.3714 3.49743 15.7739C3.53242 15.4523 3.83777 15.2379 3.97454 15.1433C4.51685 14.7681 5.14187 14.8076 5.56491 14.828C5.80664 14.8407 7.5306 14.9226 8.5866 14.828C8.78858 14.8107 9.80164 14.7114 10.9722 14.1975C12.4639 13.5433 13.2957 12.6211 13.5167 11.9905C13.5819 11.8061 13.7362 11.3631 13.5167 11.0446C13.4977 11.0178 13.442 10.9374 13.3577 10.887C13.046 10.7041 12.5069 11.0431 11.6083 11.6752C10.3917 12.5312 10.2533 12.703 9.69986 12.9363C9.31976 13.0971 8.90468 13.2185 8.42757 13.2516C8.16675 13.269 7.16482 13.3383 6.99624 12.9363C6.85151 12.5927 7.38588 12.074 7.47335 11.9905C8.13494 11.3489 8.74405 11.4719 10.0179 11.0446C10.0768 11.0242 10.7988 10.6632 12.2444 9.94115C13.2464 9.43985 13.873 9.11511 13.9939 8.52238C14.0002 8.4877 13.9986 8.34109 13.9939 8.04945C13.9843 7.42992 13.9334 7.10203 13.8348 6.47304C13.7823 6.13568 13.7521 6.02218 13.6758 6.00011C13.5136 5.95597 13.2734 6.35481 13.1987 6.47304C12.3303 7.84452 9.92887 8.97166 9.54082 9.15295C9.4629 9.1892 8.55798 9.60538 7.31431 9.78351C6.56366 9.89071 6.2424 9.83238 6.04202 9.62587C5.80664 9.38468 5.77643 8.97954 5.88298 8.68002C6.0277 8.2733 6.4237 8.07625 6.8372 7.89181C8.24467 7.26282 8.97624 7.16666 10.177 6.63068C10.7416 6.37845 11.1042 6.16564 11.4493 5.84247C11.7419 5.56817 12.1411 5.18511 12.2444 4.58134C12.2588 4.49779 12.3812 3.71904 11.9264 3.3202C11.8437 3.24769 11.7435 3.15941 11.6083 3.16256C11.3523 3.16729 11.2727 3.49361 10.8131 3.79313C10.6477 3.9019 10.468 4.0154 10.336 3.95077C10.1611 3.86564 10.1754 3.52041 10.177 3.47785C10.204 2.94502 10.6732 2.79053 10.8131 2.21671C10.8417 2.09848 10.8926 1.85887 10.8131 1.58615C10.732 1.30712 10.5889 1.25352 10.177 0.797937C9.68714 0.25565 9.64738 0.063327 9.38179 0.00972878C9.1814 -0.0312581 9.02395 0.0396807 8.74564 0.16737C8.42439 0.313977 7.91547 0.545711 7.63238 1.11322C7.4145 1.54989 7.67214 1.71856 7.47335 2.21671C7.28727 2.68176 6.86742 3.07901 6.67816 3.00492C6.47778 2.9261 6.40939 2.26085 6.51913 1.74379C6.55411 1.57511 6.61296 1.40486 6.51913 1.27086C6.39031 1.088 6.07223 1.11007 6.04202 1.11322C5.59035 1.15105 5.21503 1.62398 5.0878 2.05907C4.97647 2.44214 5.04963 2.81417 5.0878 3.00492C5.17527 3.44159 5.32317 3.5614 5.24683 3.79313C5.13074 4.14782 4.65044 4.25817 4.61069 4.26605C4.31647 4.32911 3.87117 4.28024 3.65647 3.95077C3.49584 3.70327 3.48312 3.32493 3.65647 3.16256C3.77574 3.05064 3.91251 3.11212 3.97454 3.00492C4.06519 2.85043 3.88707 2.5383 3.65647 2.37435C3.64374 2.3649 3.42745 2.21514 3.17936 2.21671C2.6275 2.21987 2.09632 2.97812 1.90706 3.63549C1.55082 4.87613 2.32374 6.0679 2.38417 6.15775C2.7102 6.64487 3.14278 6.99483 3.65647 7.89181C3.77256 8.09359 3.94432 8.41518 3.8155 8.68002C3.68986 8.93698 3.35271 8.99373 3.33839 8.9953C3.01873 9.0426 2.71815 8.84554 2.22514 8.36474C1.27569 7.43623 0.410527 6.58969 0.634768 5.84247C0.701564 5.6202 0.895589 5.30018 0.793805 5.2119C0.765179 5.18668 0.742913 5.20717 0.475732 5.2119C0.475732 5.2119 0.475732 5.2119 0.157659 5.2119C0.105176 5.2119 0.0511036 5.2119 -0.00137806 5.2119L0.0781403 17.9021Z" fill="#397764"/>
</g>
<defs>
<clipPath id="clip0">
<rect width="14" height="20" fill="white" transform="matrix(-1 0 0 1 14 0)"/>
</clipPath>
</defs>
</svg>
